<svg style="vertical-align:-2.163ex" xmlns="http://www.w3.org/2000/svg" width="29.736ex" height="5.434ex" viewBox="0 -1446 13143.4 2402" stroke="#fff" xmlns:xlink="http://www.w3.org/1999/xlink"><defs><path id="a" d="M555 683L235 683C212 683 201 682 201 660C201 649 212 644 234 644C254 644 294 647 294 631C294 629 293 623 290 613L158 82C152 60 142 47 128 42C121 40 103 39 72 39C50 39 40 37 40 16C40 5 46 0 59 0L184 3L248 2C259 2 299 0 312 0C328 0 336 8 336 24C336 34 325 39 304 39C264 39 244 43 244 52C244 52 245 55 247 68L307 312L472 312C537 312 599 332 657 371C722 414 754 467 754 530C754 629 660 683 555 683M524 644C611 644 654 614 654 554C654 498 626 423 597 397C559 363 509 346 447 346L313 346L379 610C387 644 387 644 429 644Z"/><path id="b" d="M318-248C327-248 332-243 332-234C332-231 330-227 327-223C275-183 233-117 202-26C175 53 161 131 161 208L161 292C161 369 175 447 202 526C233 617 275 683 327 723C330 726 332 730 332 734C332 743 327 748 318 748C317 748 314 747 311 745C251 699 201 631 160 540C121 453 101 371 101 292L101 208C101 129 121 47 160-40C201-131 251-199 311-245C314-247 317-248 318-248Z"/><path id="c" d="M527 373C527 419 482 442 432 442C389 442 355 419 329 373C308 419 273 442 222 442C173 442 133 419 101 374C74 335 60 306 60 287C60 278 65 273 75 273C84 273 90 278 92 287C111 345 153 413 220 413C253 413 269 392 269 351C269 330 251 252 216 118C199 51 169 18 126 18C112 18 99 21 88 26C114 36 127 54 127 80C127 106 114 119 87 119C54 119 29 91 29 58C29 12 76-11 125-11C167-11 201 12 228 58C247 12 283-11 335-11C383-11 423 12 455 57C482 96 496 125 496 144C496 153 491 158 481 158C472 158 467 153 464 144C447 87 402 18 337 18C304 18 287 38 287 79C287 92 292 120 303 165L337 300C356 375 387 413 431 413C445 413 458 410 469 405C442 396 429 378 429 351C429 325 443 312 470 312C502 312 527 341 527 373Z"/><path id="d" d="M78-245C138-199 188-131 229-40C268 47 288 129 288 208L288 292C288 371 268 453 229 540C188 631 138 699 78 745C75 747 72 748 71 748C62 748 57 743 57 734C57 730 59 726 62 723C114 683 156 617 187 526C214 447 228 369 228 292L228 208C228 131 214 53 187-26C156-117 114-183 62-223C59-227 57-231 57-234C57-243 62-248 71-248C72-248 75-247 78-245Z"/><path id="e" d="M698 367L80 367C64 367 56 359 56 344C56 329 64 321 80 321L698 321C714 321 722 329 722 344C722 356 711 367 698 367M698 179L80 179C64 179 56 171 56 156C56 141 64 133 80 133L698 133C714 133 722 141 722 156C722 169 711 179 698 179Z"/><path id="f" d="M660-946C675-946 682-939 682-924C682-917 679-911 674-907C606-856 545-777 490-670C393-480 320-209 320 65L320 435C320 560 335 686 364 813C416 1043 523 1293 674 1407C679 1411 682 1417 682 1424C682 1439 675 1446 660 1446C656 1446 652 1444 647 1441C574 1386 505 1304 440 1195C327 1005 226 718 226 435L226 65C226-202 320-477 422-664C490-787 565-880 647-941C652-944 656-946 660-946Z"/><path id="g" d="M498 144C498 153 493 158 482 158C474 158 468 151 465 137C445 58 421 18 394 18C377 18 368 32 368 60C368 73 372 97 381 132L438 357C443 376 445 387 445 392C445 412 434 422 412 422C391 422 377 410 370 387C349 424 319 442 281 442C216 442 159 409 109 343C63 281 40 217 40 150C40 63 91-11 175-11C218-11 260 12 300 58C311 20 345-11 392-11C461-11 482 70 498 144M341 374C350 353 355 339 355 330C355 326 354 321 353 314L304 122C301 111 294 99 285 87C248 41 212 18 177 18C138 18 118 48 118 107C118 131 124 167 136 215C157 300 187 357 224 388C244 405 263 413 282 413C309 413 329 400 341 374Z"/><path id="h" d="M698 274L413 274L413 559C413 575 405 583 389 583C373 583 365 575 365 559L365 274L80 274C64 274 56 266 56 250C56 234 64 226 80 226L365 226L365-59C365-75 373-83 389-83C405-83 413-75 413-59L413 226L698 226C714 226 722 234 722 250C722 263 711 274 698 274Z"/><path id="i" d="M269 666C228 624 168 603 89 603L89 564C141 564 184 572 217 588L217 82C217 64 213 52 204 47C195 42 170 39 130 39L95 39L95 0C120 2 174 3 257 3C340 3 394 2 419 0L419 39L384 39C343 39 318 42 310 47C302 52 297 64 297 82L297 636C297 660 295 666 269 666Z"/><path id="j" d="M698 270L80 270C64 270 56 263 56 250C56 237 64 230 80 230L698 230C714 230 722 237 722 250C722 262 710 270 698 270Z"/><path id="k" d="M89-941C162-886 231-804 296-695C409-506 510-218 510 65L510 435C510 702 416 977 314 1164C246 1287 171 1380 89 1441C84 1444 80 1446 76 1446C61 1446 54 1439 54 1424C54 1417 57 1411 62 1407C130 1356 191 1277 246 1170C343 980 416 709 416 435L416 65C416-60 401-186 372-313C320-543 213-793 62-907C57-911 54-917 54-924C54-939 61-946 76-946C80-946 84-944 89-941Z"/><path id="l" d="M192 250C192 279 168 303 139 303C110 303 86 279 86 250C86 221 110 197 139 197C168 197 192 221 192 250Z"/><path id="m" d="M281 445C245 445 209 428 174 394L243 679C241 688 238 694 226 694C193 694 120 685 107 684C92 682 84 675 84 660C84 650 93 645 112 645C131 645 157 646 157 632C157 628 152 608 143 571L63 249C52 207 47 173 47 148C47 62 93-11 175-11C240-11 297 22 347 89C392 151 415 216 415 283C415 370 364 445 281 445M279 415C318 415 337 385 337 326C337 299 331 263 319 218C297 133 268 75 233 44C213 27 194 19 175 19C134 19 114 51 114 115C114 137 119 170 129 214L151 304C154 319 159 330 165 338C204 389 242 415 279 415Z"/></defs><g data-latex="P(x)\ =\left(\frac{x^{a}}{x^{a}+(1-x)^{a}}\right)\cdot x^{b}" stroke="lab(98.26% 0 0)" fill="lab(98.26% 0 0)" stroke-width="0"><use data-c="1D443" xlink:href="#a" data-latex="P" transform="scale(1 -1)"/><use data-c="28" xlink:href="#b" data-latex="(" transform="scale(1 -1) translate(754)"/><use data-c="1D465" xlink:href="#c" data-latex="x" transform="scale(1 -1) translate(1143)"/><use data-c="29" xlink:href="#d" data-latex=")" transform="scale(1 -1) translate(1715)"/><use data-c="3D" xlink:href="#e" data-latex="=" transform="scale(1 -1) translate(2713.8)"/><g data-latex="\left(\frac{x^{a}}{x^{a}+(1-x)^{a}}\right)"><use data-c="28" xlink:href="#f" data-latex="\left(" transform="scale(1 -1) translate(3769.6)"/><g data-latex="\frac{x^{a}}{x^{a}+(1-x)^{a}}" transform="scale(1 -1) translate(3769.6) translate(736)"><g data-latex="x^{a}"><use data-c="1D465" xlink:href="#c" data-latex="x" transform="translate(2596 676)"/><g data-latex="{a}" data-mjx-texclass="ORD"><use data-c="1D44E" xlink:href="#g" data-latex="a" transform="translate(2596 676) translate(605 363)scale(.707)"/></g></g><g data-latex="x^{a}+(1-x)^{a}"><g data-latex="x^{a}"><use data-c="1D465" xlink:href="#c" data-latex="x" transform="translate(220 -708)"/><g data-latex="{a}" data-mjx-texclass="ORD"><use data-c="1D44E" xlink:href="#g" data-latex="a" transform="translate(220 -708) translate(605 289)scale(.707)"/></g></g><use data-c="2B" xlink:href="#h" data-latex="+" transform="translate(220 -708) translate(1251.3)"/><use data-c="28" xlink:href="#b" data-latex="(" transform="translate(220 -708) translate(2251.5)"/><use data-c="31" xlink:href="#i" data-latex="1" transform="translate(220 -708) translate(2640.5)"/><use data-c="2212" xlink:href="#j" data-latex="-" transform="translate(220 -708) translate(3362.7)"/><use data-c="1D465" xlink:href="#c" data-latex="x" transform="translate(220 -708) translate(4362.9)"/><g data-latex=")^{a}"><use data-c="29" xlink:href="#d" data-latex=")" transform="translate(220 -708) translate(4934.9)"/><g data-latex="{a}" data-mjx-texclass="ORD"><use data-c="1D44E" xlink:href="#g" data-latex="a" transform="translate(220 -708) translate(4934.9) translate(422 289)scale(.707)"/></g></g></g><path stroke="none" d="M120 220H6101V280H120z"/></g><use data-c="29" xlink:href="#k" data-latex="\right)" transform="scale(1 -1) translate(3769.6) translate(6957)"/></g><use data-c="22C5" xlink:href="#l" data-latex="\cdot" transform="scale(1 -1) translate(11684.8)"/><g data-latex="x^{b}"><use data-c="1D465" xlink:href="#c" data-latex="x" transform="scale(1 -1) translate(12185)"/><g data-latex="{b}" data-mjx-texclass="ORD"><use data-c="1D44F" xlink:href="#m" data-latex="b" transform="scale(1 -1) translate(12185) translate(605 413)scale(.707)"/></g></g></g></svg>